<svg fill="#000000" xmlns="http://www.w3.org/2000/svg"  viewBox="0 0 80 80" width="35px" height="35px"><path d="M 14 10 C 11.802666 10 10 11.802666 10 14 L 10 66 C 10 68.197334 11.802666 70 14 70 L 66 70 C 68.197334 70 70 68.197334 70 66 L 70 14 C 70 11.802666 68.197334 10 66 10 L 14 10 z M 14 12 L 66 12 C 67.116666 12 68 12.883334 68 14 L 68 66 C 68 67.116666 67.116666 68 66 68 L 14 68 C 12.883334 68 12 67.116666 12 66 L 12 14 C 12 12.883334 12.883334 12 14 12 z M 22.857422 17 C 19.738161 17 17.1875 19.548867 17.1875 22.666016 C 17.1875 24.025265 17.841538 25.27309 18.697266 26.429688 C 19.552993 27.586284 20.649059 28.664065 21.734375 29.607422 C 23.905006 31.494136 26.0625 32.847656 26.0625 32.847656 L 26.59375 33.181641 L 27.125 32.847656 C 27.125 32.847656 29.282494 31.494136 31.453125 29.607422 C 32.538441 28.664065 33.634507 27.586284 34.490234 26.429688 C 35.345962 25.273091 36 24.025265 36 22.666016 C 36 19.548867 33.449339 17 30.330078 17 C 28.855645 17 27.602335 17.673329 26.59375 18.599609 C 25.584869 17.673568 24.331226 17 22.857422 17 z M 45 18 A 1 1 0 0 0 44 19 A 1 1 0 0 0 45 20 A 1 1 0 0 0 46 19 A 1 1 0 0 0 45 18 z M 49 18 A 1 1 0 0 0 48 19 A 1 1 0 0 0 49 20 A 1 1 0 0 0 50 19 A 1 1 0 0 0 49 18 z M 53 18 A 1 1 0 0 0 52 19 A 1 1 0 0 0 53 20 A 1 1 0 0 0 54 19 A 1 1 0 0 0 53 18 z M 57 18 A 1 1 0 0 0 56 19 A 1 1 0 0 0 57 20 A 1 1 0 0 0 58 19 A 1 1 0 0 0 57 18 z M 61 18 A 1 1 0 0 0 60 19 A 1 1 0 0 0 61 20 A 1 1 0 0 0 62 19 A 1 1 0 0 0 61 18 z M 22.857422 19 C 24.065418 19 25.123147 19.57891 25.794922 20.474609 L 26.59375 21.542969 L 27.394531 20.474609 C 28.065143 19.57941 29.120872 19 30.330078 19 C 32.368817 19 34 20.631165 34 22.666016 C 34 23.334266 33.60321 24.26655 32.882812 25.240234 C 32.162416 26.213919 31.156809 27.216341 30.140625 28.099609 C 28.373192 29.635863 27.027287 30.473895 26.59375 30.753906 C 26.160213 30.473895 24.814308 29.635863 23.046875 28.099609 C 22.030691 27.216341 21.025084 26.213919 20.304688 25.240234 C 19.58429 24.26655 19.1875 23.334266 19.1875 22.666016 C 19.1875 20.631165 20.818683 19 22.857422 19 z M 45 24 A 1 1 0 0 0 44 25 A 1 1 0 0 0 45 26 A 1 1 0 0 0 46 25 A 1 1 0 0 0 45 24 z M 49 24 A 1 1 0 0 0 48 25 A 1 1 0 0 0 49 26 A 1 1 0 0 0 50 25 A 1 1 0 0 0 49 24 z M 53 24 A 1 1 0 0 0 52 25 A 1 1 0 0 0 53 26 A 1 1 0 0 0 54 25 A 1 1 0 0 0 53 24 z M 57 24 A 1 1 0 0 0 56 25 A 1 1 0 0 0 57 26 A 1 1 0 0 0 58 25 A 1 1 0 0 0 57 24 z M 61 24 A 1 1 0 0 0 60 25 A 1 1 0 0 0 61 26 A 1 1 0 0 0 62 25 A 1 1 0 0 0 61 24 z M 45 30 A 1 1 0 0 0 44 31 A 1 1 0 0 0 45 32 A 1 1 0 0 0 46 31 A 1 1 0 0 0 45 30 z M 49 30 A 1 1 0 0 0 48 31 A 1 1 0 0 0 49 32 A 1 1 0 0 0 50 31 A 1 1 0 0 0 49 30 z M 53 30 A 1 1 0 0 0 52 31 A 1 1 0 0 0 53 32 A 1 1 0 0 0 54 31 A 1 1 0 0 0 53 30 z M 57 30 A 1 1 0 0 0 56 31 A 1 1 0 0 0 57 32 A 1 1 0 0 0 58 31 A 1 1 0 0 0 57 30 z M 61 30 A 1 1 0 0 0 60 31 A 1 1 0 0 0 61 32 A 1 1 0 0 0 62 31 A 1 1 0 0 0 61 30 z M 19 36 A 1 1 0 0 0 18 37 A 1 1 0 0 0 19 38 A 1 1 0 0 0 20 37 A 1 1 0 0 0 19 36 z M 23 36 A 1 1 0 0 0 22 37 A 1 1 0 0 0 23 38 A 1 1 0 0 0 24 37 A 1 1 0 0 0 23 36 z M 27 36 A 1 1 0 0 0 26 37 A 1 1 0 0 0 27 38 A 1 1 0 0 0 28 37 A 1 1 0 0 0 27 36 z M 31 36 A 1 1 0 0 0 30 37 A 1 1 0 0 0 31 38 A 1 1 0 0 0 32 37 A 1 1 0 0 0 31 36 z M 35 36 A 1 1 0 0 0 34 37 A 1 1 0 0 0 35 38 A 1 1 0 0 0 36 37 A 1 1 0 0 0 35 36 z M 45 36 A 1 1 0 0 0 44 37 A 1 1 0 0 0 45 38 A 1 1 0 0 0 46 37 A 1 1 0 0 0 45 36 z M 49 36 A 1 1 0 0 0 48 37 A 1 1 0 0 0 49 38 A 1 1 0 0 0 50 37 A 1 1 0 0 0 49 36 z M 53 36 A 1 1 0 0 0 52 37 A 1 1 0 0 0 53 38 A 1 1 0 0 0 54 37 A 1 1 0 0 0 53 36 z M 57 36 A 1 1 0 0 0 56 37 A 1 1 0 0 0 57 38 A 1 1 0 0 0 58 37 A 1 1 0 0 0 57 36 z M 61 36 A 1 1 0 0 0 60 37 A 1 1 0 0 0 61 38 A 1 1 0 0 0 62 37 A 1 1 0 0 0 61 36 z M 19 42 A 1 1 0 0 0 18 43 A 1 1 0 0 0 19 44 A 1 1 0 0 0 20 43 A 1 1 0 0 0 19 42 z M 23 42 A 1 1 0 0 0 22 43 A 1 1 0 0 0 23 44 A 1 1 0 0 0 24 43 A 1 1 0 0 0 23 42 z M 27 42 A 1 1 0 0 0 26 43 A 1 1 0 0 0 27 44 A 1 1 0 0 0 28 43 A 1 1 0 0 0 27 42 z M 31 42 A 1 1 0 0 0 30 43 A 1 1 0 0 0 31 44 A 1 1 0 0 0 32 43 A 1 1 0 0 0 31 42 z M 35 42 A 1 1 0 0 0 34 43 A 1 1 0 0 0 35 44 A 1 1 0 0 0 36 43 A 1 1 0 0 0 35 42 z M 45 42 A 1 1 0 0 0 44 43 A 1 1 0 0 0 45 44 A 1 1 0 0 0 46 43 A 1 1 0 0 0 45 42 z M 49 42 A 1 1 0 0 0 48 43 A 1 1 0 0 0 49 44 A 1 1 0 0 0 50 43 A 1 1 0 0 0 49 42 z M 53 42 A 1 1 0 0 0 52 43 A 1 1 0 0 0 53 44 A 1 1 0 0 0 54 43 A 1 1 0 0 0 53 42 z M 57 42 A 1 1 0 0 0 56 43 A 1 1 0 0 0 57 44 A 1 1 0 0 0 58 43 A 1 1 0 0 0 57 42 z M 61 42 A 1 1 0 0 0 60 43 A 1 1 0 0 0 61 44 A 1 1 0 0 0 62 43 A 1 1 0 0 0 61 42 z M 19 48 A 1 1 0 0 0 18 49 A 1 1 0 0 0 19 50 A 1 1 0 0 0 20 49 A 1 1 0 0 0 19 48 z M 23 48 A 1 1 0 0 0 22 49 A 1 1 0 0 0 23 50 A 1 1 0 0 0 24 49 A 1 1 0 0 0 23 48 z M 27 48 A 1 1 0 0 0 26 49 A 1 1 0 0 0 27 50 A 1 1 0 0 0 28 49 A 1 1 0 0 0 27 48 z M 31 48 A 1 1 0 0 0 30 49 A 1 1 0 0 0 31 50 A 1 1 0 0 0 32 49 A 1 1 0 0 0 31 48 z M 35 48 A 1 1 0 0 0 34 49 A 1 1 0 0 0 35 50 A 1 1 0 0 0 36 49 A 1 1 0 0 0 35 48 z M 45 48 A 1 1 0 0 0 44 49 A 1 1 0 0 0 45 50 A 1 1 0 0 0 46 49 A 1 1 0 0 0 45 48 z M 49 48 A 1 1 0 0 0 48 49 A 1 1 0 0 0 49 50 A 1 1 0 0 0 50 49 A 1 1 0 0 0 49 48 z M 53 48 A 1 1 0 0 0 52 49 A 1 1 0 0 0 53 50 A 1 1 0 0 0 54 49 A 1 1 0 0 0 53 48 z M 57 48 A 1 1 0 0 0 56 49 A 1 1 0 0 0 57 50 A 1 1 0 0 0 58 49 A 1 1 0 0 0 57 48 z M 61 48 A 1 1 0 0 0 60 49 A 1 1 0 0 0 61 50 A 1 1 0 0 0 62 49 A 1 1 0 0 0 61 48 z M 19 54 A 1 1 0 0 0 18 55 A 1 1 0 0 0 19 56 A 1 1 0 0 0 20 55 A 1 1 0 0 0 19 54 z M 23 54 A 1 1 0 0 0 22 55 A 1 1 0 0 0 23 56 A 1 1 0 0 0 24 55 A 1 1 0 0 0 23 54 z M 27 54 A 1 1 0 0 0 26 55 A 1 1 0 0 0 27 56 A 1 1 0 0 0 28 55 A 1 1 0 0 0 27 54 z M 31 54 A 1 1 0 0 0 30 55 A 1 1 0 0 0 31 56 A 1 1 0 0 0 32 55 A 1 1 0 0 0 31 54 z M 35 54 A 1 1 0 0 0 34 55 A 1 1 0 0 0 35 56 A 1 1 0 0 0 36 55 A 1 1 0 0 0 35 54 z M 45 54 A 1 1 0 0 0 44 55 A 1 1 0 0 0 45 56 A 1 1 0 0 0 46 55 A 1 1 0 0 0 45 54 z M 49 54 A 1 1 0 0 0 48 55 A 1 1 0 0 0 49 56 A 1 1 0 0 0 50 55 A 1 1 0 0 0 49 54 z M 53 54 A 1 1 0 0 0 52 55 A 1 1 0 0 0 53 56 A 1 1 0 0 0 54 55 A 1 1 0 0 0 53 54 z M 57 54 A 1 1 0 0 0 56 55 A 1 1 0 0 0 57 56 A 1 1 0 0 0 58 55 A 1 1 0 0 0 57 54 z M 61 54 A 1 1 0 0 0 60 55 A 1 1 0 0 0 61 56 A 1 1 0 0 0 62 55 A 1 1 0 0 0 61 54 z M 19 60 A 1 1 0 0 0 18 61 A 1 1 0 0 0 19 62 A 1 1 0 0 0 20 61 A 1 1 0 0 0 19 60 z M 23 60 A 1 1 0 0 0 22 61 A 1 1 0 0 0 23 62 A 1 1 0 0 0 24 61 A 1 1 0 0 0 23 60 z M 27 60 A 1 1 0 0 0 26 61 A 1 1 0 0 0 27 62 A 1 1 0 0 0 28 61 A 1 1 0 0 0 27 60 z M 31 60 A 1 1 0 0 0 30 61 A 1 1 0 0 0 31 62 A 1 1 0 0 0 32 61 A 1 1 0 0 0 31 60 z M 35 60 A 1 1 0 0 0 34 61 A 1 1 0 0 0 35 62 A 1 1 0 0 0 36 61 A 1 1 0 0 0 35 60 z M 45 60 A 1 1 0 0 0 44 61 A 1 1 0 0 0 45 62 A 1 1 0 0 0 46 61 A 1 1 0 0 0 45 60 z M 49 60 A 1 1 0 0 0 48 61 A 1 1 0 0 0 49 62 A 1 1 0 0 0 50 61 A 1 1 0 0 0 49 60 z M 53 60 A 1 1 0 0 0 52 61 A 1 1 0 0 0 53 62 A 1 1 0 0 0 54 61 A 1 1 0 0 0 53 60 z M 57 60 A 1 1 0 0 0 56 61 A 1 1 0 0 0 57 62 A 1 1 0 0 0 58 61 A 1 1 0 0 0 57 60 z M 61 60 A 1 1 0 0 0 60 61 A 1 1 0 0 0 61 62 A 1 1 0 0 0 62 61 A 1 1 0 0 0 61 60 z"/></svg>